<svg xmlns="http://www.w3.org/2000/svg" xmlns:xlink="http://www.w3.org/1999/xlink" width="264" height="156" viewBox="0 0 264 156">
<defs>
<ellipse id="b" cx="39.21" cy="39.146" rx="39.21" ry="39.146"/>
<filter id="a" width="233.9%" height="234.1%" x="-66.9%" y="-47.9%" filterUnits="objectBoundingBox">
<feOffset dy="15" in="SourceAlpha" result="shadowOffsetOuter1"/>
<feGaussianBlur in="shadowOffsetOuter1" result="shadowBlurOuter1" stdDeviation="15"/>
<feColorMatrix in="shadowBlurOuter1" values="0 0 0 0 0.411764706 0 0 0 0 0.282352941 0 0 0 0 0.980392157 0 0 0 0.1 0"/>
</filter>
</defs>
<g fill="none" fill-rule="evenodd">
<path fill="#FF95D7" d="M18.73 79.69c-4.177 4.178-10.945 4.184-15.116.013-4.17-4.17-4.165-10.939.013-15.116 4.177-4.178 10.945-4.184 15.116-.013 4.17 4.171 4.165 10.939-.013 15.117zm30.258-30.257c-4.178 4.178-10.945 4.183-15.116.012-4.171-4.17-4.166-10.938.012-15.116 4.178-4.178 10.946-4.183 15.117-.012 4.17 4.17 4.165 10.938-.013 15.116zm30.258-30.258c-4.178 4.178-10.946 4.184-15.117.013-4.17-4.171-4.165-10.939.013-15.117C68.319-.106 75.087-.112 79.258 4.06c4.171 4.17 4.165 10.939-.012 15.116zM48.938 109.9c-4.177 4.177-10.945 4.183-15.116.012-4.17-4.17-4.165-10.939.012-15.116 4.178-4.178 10.946-4.184 15.117-.013 4.17 4.171 4.165 10.939-.013 15.117zM79.196 79.64c-4.178 4.178-10.946 4.183-15.116.012-4.171-4.17-4.166-10.938.012-15.116 4.178-4.178 10.946-4.183 15.116-.012 4.171 4.17 4.166 10.938-.012 15.116zm30.258-30.258c-4.178 4.178-10.946 4.184-15.117.013-4.17-4.171-4.165-10.939.013-15.117 4.177-4.177 10.945-4.183 15.116-.012 4.17 4.17 4.165 10.939-.012 15.116zm-30.308 90.723c-4.177 4.178-10.945 4.184-15.116.013-4.17-4.171-4.165-10.939.012-15.117 4.178-4.177 10.946-4.183 15.117-.012 4.17 4.17 4.165 10.939-.013 15.116zm30.258-30.257c-4.178 4.178-10.946 4.183-15.116.012-4.171-4.17-4.166-10.938.012-15.116 4.178-4.178 10.946-4.183 15.116-.013 4.171 4.171 4.166 10.94-.012 15.117zm30.258-30.258c-4.178 4.178-10.946 4.183-15.117.013-4.17-4.171-4.165-10.939.013-15.117 4.177-4.177 10.945-4.183 15.116-.012 4.17 4.17 4.165 10.939-.012 15.116z"/>
<path fill="#FFEBF7" d="M139.825 79.465c-4.178 4.178-10.946 4.184-15.117.013-4.17-4.171-4.165-10.939.013-15.117 4.178-4.177 10.945-4.183 15.116-.012 4.171 4.17 4.166 10.939-.012 15.116zm30.257-30.257c-4.177 4.177-10.945 4.183-15.116.012-4.17-4.17-4.165-10.939.012-15.116 4.178-4.178 10.946-4.184 15.117-.013 4.17 4.171 4.165 10.939-.013 15.117zM200.34 18.95c-4.178 4.178-10.945 4.183-15.116.012-4.171-4.17-4.166-10.938.012-15.116 4.178-4.178 10.946-4.183 15.116-.012 4.171 4.17 4.166 10.938-.012 15.116zm-30.307 90.723c-4.178 4.178-10.946 4.183-15.117.013-4.17-4.171-4.165-10.939.013-15.117 4.178-4.177 10.945-4.183 15.116-.012 4.171 4.17 4.165 10.939-.012 15.116zm30.257-30.257c-4.177 4.177-10.945 4.183-15.116.012-4.17-4.17-4.165-10.939.012-15.116 4.178-4.178 10.946-4.184 15.117-.013 4.17 4.171 4.165 10.939-.013 15.117zm30.258-30.258c-4.178 4.178-10.946 4.183-15.116.012-4.171-4.17-4.166-10.938.012-15.116 4.178-4.178 10.946-4.183 15.116-.012 4.171 4.17 4.166 10.938-.012 15.116zm-30.307 90.723c-4.178 4.178-10.946 4.183-15.117.013-4.17-4.171-4.165-10.94.013-15.117 4.177-4.178 10.945-4.183 15.116-.012 4.171 4.17 4.165 10.938-.012 15.116zm30.257-30.257c-4.177 4.177-10.945 4.183-15.116.012-4.17-4.17-4.165-10.939.012-15.116 4.178-4.178 10.946-4.184 15.117-.013 4.17 4.171 4.165 10.939-.013 15.117zm30.258-30.258c-4.178 4.178-10.946 4.183-15.116.012-4.171-4.17-4.166-10.938.012-15.116 4.178-4.178 10.946-4.183 15.116-.012 4.171 4.17 4.166 10.938-.012 15.116z"/>
<g transform="translate(92.75 33.438)">
<use fill="#000" filter="url(#a)" xlink:href="#b"/>
<use fill="#FFF" xlink:href="#b"/>
</g>
<path d="M115.419 56.07h33.083V89.1H115.42z"/>
<path fill="#977FFF" d="M138.068 79.3l5.494-5.502c.297-.302.607-.77.61-1.223.003-.462-.01-.612-.61-1.222l-1.221-1.223 1.831-1.834 1.22 1.223c1.766 1.83 1.668 4.268-.135 6.098l-5.358 5.516 1.221 1.222h-4.26v-4.278l1.208 1.222zm-5.077-11.188l3.442 3.433c.57.569.57 1.491 0 2.06l-3.442 3.434a1.463 1.463 0 0 1-2.065 0l-3.441-3.434a1.454 1.454 0 0 1 0-2.06l3.441-3.433a1.463 1.463 0 0 1 2.065 0zm-7.79 10.59l5.514 5.48c.302.297.771.606 1.225.61.464.002.614-.01 1.226-.61l1.225-1.218 1.838 1.827-1.225 1.205c-1.835 1.76-4.279 1.663-6.113-.135l-5.529-5.332-1.225 1.218v-4.263h4.289l-1.226 1.218zm.633-12.853l-5.49 5.505c-.297.302-.607.77-.61 1.223-.003.462.01.613.61 1.223l1.22 1.224-1.83 1.835-1.207-1.224c-1.764-1.831-1.665-4.27.136-6.102l5.34-5.52-1.22-1.223h4.271v4.282l-1.22-1.223zm12.865.618l-5.515-5.48c-.302-.297-.771-.606-1.225-.61-.463-.002-.614.01-1.226.61l-1.225 1.217-1.838-1.826 1.225-1.205c1.835-1.76 4.279-1.663 6.113.135l5.53 5.332 1.225-1.218v4.263h-4.29l1.226-1.218z"/>
</g>
</svg>
