<svg xmlns="http://www.w3.org/2000/svg" xmlns:xlink="http://www.w3.org/1999/xlink" width="241" height="176" viewBox="0 0 241 176">
<defs>
<ellipse id="b" cx="39.297" cy="39.409" rx="39.297" ry="39.409"/>
<filter id="a" width="233.6%" height="233.2%" x="-66.8%" y="-47.6%" filterUnits="objectBoundingBox">
<feOffset dy="15" in="SourceAlpha" result="shadowOffsetOuter1"/>
<feGaussianBlur in="shadowOffsetOuter1" result="shadowBlurOuter1" stdDeviation="15"/>
<feColorMatrix in="shadowBlurOuter1" values="0 0 0 0 0.411764706 0 0 0 0 0.282352941 0 0 0 0 0.980392157 0 0 0 0.1 0"/>
</filter>
</defs>
<g fill="none" fill-rule="evenodd">
<path fill="#66D4FF" d="M95.057 175.682c-40.076-40.19-40.076-105.35 0-145.54 40.075-40.19 105.05-40.19 145.125 0L95.057 175.682z"/>
<path fill="#CCF2FF" d="M70.386 17.662c19.437 19.492 19.437 51.095 0 70.587-19.437 19.492-50.95 19.492-70.386 0l70.386-70.587zM193.608 176c-12.81-12.81-12.81-33.581 0-46.392 12.81-12.81 33.581-12.81 46.392 0L193.608 176z"/>
<g transform="translate(111 47)">
<use fill="#000" filter="url(#a)" xlink:href="#b"/>
<use fill="#FFF" xlink:href="#b"/>
</g>
<path d="M133.718 69.783h33.873v33.969h-33.873z"/>
<g transform="translate(135.56 71.63)">
<path fill="#FF95D7" d="M8.799 17.241h9.621a2.46 2.46 0 0 0 2.456-2.463V2.463A2.46 2.46 0 0 0 18.42 0H2.456A2.46 2.46 0 0 0 0 2.463v12.315a2.46 2.46 0 0 0 2.456 2.463h.614v3.036c0 .704.55 1.275 1.228 1.275.335 0 .655-.142.887-.393l3.614-3.918z"/>
<path fill="#FF95D7" fill-rule="nonzero" d="M6.918 22.905l.07-.074 1.608-1.743v.771c0 .85.687 1.54 1.535 1.54h9.622a.92.92 0 0 1 .676.296l3.614 3.917a.287.287 0 0 0 .21.097c.163 0 .307-.15.307-.351v-3.036c0-.51.413-.923.921-.923h.614c.848 0 1.535-.69 1.535-1.54V9.544c0-.85-.687-1.54-1.535-1.54h-2.763V6.159h2.763a3.382 3.382 0 0 1 3.377 3.386V21.86a3.383 3.383 0 0 1-3.07 3.373v2.126c0 1.207-.954 2.198-2.149 2.198-.593 0-1.158-.25-1.563-.689l-3.34-3.62H10.13a3.38 3.38 0 0 1-3.213-2.342z"/>
<rect width="3.684" height="3.695" x="3.07" y="6.773" fill="#FFF" rx="1.842"/>
<rect width="3.684" height="3.695" x="8.596" y="6.773" fill="#FFF" rx="1.842"/>
<rect width="3.684" height="3.695" x="14.122" y="6.773" fill="#FFF" rx="1.842"/>
</g>
</g>
</svg>
