<svg xmlns="http://www.w3.org/2000/svg" xmlns:xlink="http://www.w3.org/1999/xlink" width="247" height="191" viewBox="0 0 247 191">
<defs>
<ellipse id="b" cx="39.348" cy="39.217" rx="39.348" ry="39.217"/>
<filter id="a" width="233.4%" height="233.9%" x="-66.7%" y="-47.8%" filterUnits="objectBoundingBox">
<feOffset dy="15" in="SourceAlpha" result="shadowOffsetOuter1"/>
<feGaussianBlur in="shadowOffsetOuter1" result="shadowBlurOuter1" stdDeviation="15"/>
<feColorMatrix in="shadowBlurOuter1" values="0 0 0 0 0.411764706 0 0 0 0 0.282352941 0 0 0 0 0.980392157 0 0 0 0.1 0"/>
</filter>
</defs>
<g fill="none" fill-rule="evenodd">
<path fill="#E1DAFE" d="M158.388.452l88.215 88.215-9.004 9.004-88.215-88.215 9.004-9.004zm-23.22 23.22l88.216 88.215-9.004 9.003-88.215-88.214 9.004-9.004zm-23.97 23.218l88.216 88.215-9.004 9.004-88.215-88.215 9.004-9.004zM87.98 70.11l88.215 88.214-9.004 9.004-88.215-88.215 9.004-9.003zM64.76 93.33l88.215 88.214-9.003 9.004-88.215-88.215 9.004-9.004z"/>
<path fill="#A587FF" d="M-.042 104.095l65.045-64.841 62.235 62.012-65.046 64.841z"/>
<g transform="translate(62 63)">
<use fill="#000" filter="url(#a)" xlink:href="#b"/>
<use fill="#FFF" xlink:href="#b"/>
</g>
<path d="M84.748 85.672h33.2v33.09h-33.2z"/>
<path fill="#66D4FF" d="M90.822 88.736h21.052a3 3 0 0 1 3 3v14.834a3 3 0 0 1-3 3H90.822a3 3 0 0 1-3-3V91.736a3 3 0 0 1 3-3z"/>
<path fill="#FFF" d="M91.782 91.187h19.133a1.5 1.5 0 0 1 1.5 1.5v11.98H90.282v-11.98a1.5 1.5 0 0 1 1.5-1.5z"/>
<path fill="#66D4FF" d="M104.423 111.408l.614 3.677H97.66l.614-3.677z"/>
<path fill="#66D4FF" d="M93.97 113.247h14.756v2.451H93.97z"/>
</g>
</svg>
